<svg width="15" height="19" viewBox="0 0 15 19" fill="none" xmlns="http://www.w3.org/2000/svg">
<path d="M0.363281 12.4102L3.73828 12.082C3.94141 13.2148 4.35156 14.0469 4.96875 14.5781C5.59375 15.1094 6.43359 15.375 7.48828 15.375C8.60547 15.375 9.44531 15.1406 10.0078 14.6719C10.5781 14.1953 10.8633 13.6406 10.8633 13.0078C10.8633 12.6016 10.7422 12.2578 10.5 11.9766C10.2656 11.6875 9.85156 11.4375 9.25781 11.2266C8.85156 11.0859 7.92578 10.8359 6.48047 10.4766C4.62109 10.0156 3.31641 9.44922 2.56641 8.77734C1.51172 7.83203 0.984375 6.67969 0.984375 5.32031C0.984375 4.44531 1.23047 3.62891 1.72266 2.87109C2.22266 2.10547 2.9375 1.52344 3.86719 1.125C4.80469 0.726562 5.93359 0.527344 7.25391 0.527344C9.41016 0.527344 11.0312 1 12.1172 1.94531C13.2109 2.89063 13.7852 4.15234 13.8398 5.73047L10.3711 5.88281C10.2227 5 9.90234 4.36719 9.41016 3.98438C8.92578 3.59375 8.19531 3.39844 7.21875 3.39844C6.21094 3.39844 5.42188 3.60547 4.85156 4.01953C4.48438 4.28516 4.30078 4.64062 4.30078 5.08594C4.30078 5.49219 4.47266 5.83984 4.81641 6.12891C5.25391 6.49609 6.31641 6.87891 8.00391 7.27734C9.69141 7.67578 10.9375 8.08984 11.7422 8.51953C12.5547 8.94141 13.1875 9.52344 13.6406 10.2656C14.1016 11 14.332 11.9102 14.332 12.9961C14.332 13.9805 14.0586 14.9023 13.5117 15.7617C12.9648 16.6211 12.1914 17.2617 11.1914 17.6836C10.1914 18.0977 8.94531 18.3047 7.45312 18.3047C5.28125 18.3047 3.61328 17.8047 2.44922 16.8047C1.28516 15.7969 0.589844 14.332 0.363281 12.4102Z" fill="#177263"/>
</svg>
