<svg width="16" height="21" viewBox="0 0 16 21" fill="none" xmlns="http://www.w3.org/2000/svg">
<path d="M8 0C11.31 0 14 2.66 14 5.95C14 10.41 8 17 8 17C8 17 2 10.41 2 5.95C2 2.66 4.69 0 8 0ZM8 4C7.46957 4 6.96086 4.21071 6.58579 4.58579C6.21071 4.96086 6 5.46957 6 6C6 6.53043 6.21071 7.03914 6.58579 7.41421C6.96086 7.78929 7.46957 8 8 8C8.53043 8 9.03914 7.78929 9.41421 7.41421C9.78929 7.03914 10 6.53043 10 6C10 5.46957 9.78929 4.96086 9.41421 4.58579C9.03914 4.21071 8.53043 4 8 4V4ZM16 17C16 19.21 12.42 21 8 21C3.58 21 0 19.21 0 17C0 15.71 1.22 14.56 3.11 13.83L3.75 14.74C2.67 15.19 2 15.81 2 16.5C2 17.88 4.69 19 8 19C11.31 19 14 17.88 14 16.5C14 15.81 13.33 15.19 12.25 14.74L12.89 13.83C14.78 14.56 16 15.71 16 17Z" fill="#177263"/>
</svg>
