<svg width="13" height="17" viewBox="0 0 13 17" fill="none" xmlns="http://www.w3.org/2000/svg">
<path d="M0 10.736L3.04928 10.4396C3.2328 11.463 3.60338 12.2148 4.161 12.6948C4.72568 13.1747 5.48447 13.4147 6.43737 13.4147C7.44674 13.4147 8.20553 13.203 8.71375 12.7795C9.22902 12.3489 9.48665 11.8477 9.48665 11.276C9.48665 10.9089 9.37725 10.5984 9.15843 10.3443C8.94668 10.0831 8.57257 9.85723 8.03613 9.66665C7.66908 9.53959 6.83265 9.31372 5.52682 8.98903C3.84689 8.57257 2.66812 8.06083 1.9905 7.4538C1.0376 6.59972 0.561152 5.55859 0.561152 4.3304C0.561152 3.53985 0.783496 2.80223 1.22818 2.11756C1.67993 1.42582 2.32578 0.899961 3.16575 0.539977C4.01277 0.179992 5.03273 0 6.22562 0C8.17377 0 9.63841 0.427041 10.6195 1.28112C11.6077 2.1352 12.1265 3.27515 12.176 4.70098L9.04197 4.83862C8.90785 4.041 8.61845 3.46926 8.17377 3.1234C7.73614 2.77047 7.07617 2.59401 6.19385 2.59401C5.2833 2.59401 4.57039 2.78106 4.05512 3.15516C3.72337 3.39515 3.55749 3.71631 3.55749 4.11865C3.55749 4.48569 3.71278 4.7998 4.02336 5.06096C4.41863 5.39271 5.37859 5.73858 6.90323 6.09856C8.42788 6.45855 9.55371 6.83265 10.2807 7.22087C11.0148 7.60203 11.5866 8.12789 11.996 8.79845C12.4124 9.46195 12.6206 10.2843 12.6206 11.2654C12.6206 12.1548 12.3736 12.9877 11.8795 13.7641C11.3854 14.5406 10.6866 15.1194 9.78311 15.5005C8.87962 15.8746 7.75379 16.0617 6.40561 16.0617C4.44334 16.0617 2.93635 15.6099 1.88463 14.7064C0.832906 13.7959 0.204697 12.4724 0 10.736Z" fill="#177263"/>
</svg>
