<svg width="27" height="34" viewBox="0 0 27 34" fill="none" xmlns="http://www.w3.org/2000/svg">
<path d="M13.6804 0.140747C19.0556 0.140747 23.424 4.30955 23.424 9.46571C23.424 16.4555 13.6804 26.7835 13.6804 26.7835C13.6804 26.7835 3.93682 16.4555 3.93682 9.46571C3.93682 4.30955 8.30519 0.140747 13.6804 0.140747ZM13.6804 6.40963C12.819 6.40963 11.9929 6.73986 11.3838 7.32769C10.7747 7.91551 10.4325 8.71276 10.4325 9.54407C10.4325 10.3754 10.7747 11.1726 11.3838 11.7605C11.9929 12.3483 12.819 12.6785 13.6804 12.6785C14.5418 12.6785 15.3679 12.3483 15.977 11.7605C16.5861 11.1726 16.9283 10.3754 16.9283 9.54407C16.9283 8.71276 16.5861 7.91551 15.977 7.32769C15.3679 6.73986 14.5418 6.40963 13.6804 6.40963ZM26.6718 26.7835C26.6718 30.2471 20.8582 33.0524 13.6804 33.0524C6.50263 33.0524 0.688965 30.2471 0.688965 26.7835C0.688965 24.7618 2.67016 22.9595 5.73939 21.8154L6.7787 23.2416C5.02486 23.9468 3.93682 24.9185 3.93682 25.9999C3.93682 28.1627 8.30519 29.9179 13.6804 29.9179C19.0556 29.9179 23.424 28.1627 23.424 25.9999C23.424 24.9185 22.3359 23.9468 20.5821 23.2416L21.6214 21.8154C24.6906 22.9595 26.6718 24.7618 26.6718 26.7835Z" fill="#177263"/>
</svg>
