<svg width="23" height="29" viewBox="0 0 23 29" fill="none" xmlns="http://www.w3.org/2000/svg">
<path d="M0.779421 19.1031L6.06136 18.5895C6.37925 20.3624 7.02116 21.6646 7.98707 22.496C8.9652 23.3274 10.2796 23.7431 11.9302 23.7431C13.6786 23.7431 14.993 23.3763 15.8733 22.6427C16.7658 21.8969 17.2121 21.0288 17.2121 20.0384C17.2121 19.4026 17.0226 18.8646 16.6436 18.4245C16.2768 17.9721 15.6288 17.5808 14.6995 17.2507C14.0637 17.0306 12.6149 16.6394 10.3529 16.077C7.44298 15.3556 5.40112 14.4691 4.22735 13.4176C2.57675 11.9382 1.75144 10.1348 1.75144 8.00733C1.75144 6.63793 2.13659 5.36024 2.90687 4.17425C3.68938 2.97603 4.80812 2.06514 6.2631 1.44158C7.7303 0.818021 9.49706 0.50624 11.5634 0.50624C14.9379 0.50624 17.475 1.24596 19.1745 2.72539C20.8862 4.20482 21.7849 6.17943 21.8705 8.64923L16.4418 8.88765C16.2095 7.50603 15.7082 6.51567 14.9379 5.91656C14.1799 5.30522 13.0367 4.99955 11.5084 4.99955C9.93111 4.99955 8.69621 5.32356 7.80366 5.97158C7.22901 6.38729 6.94168 6.9436 6.94168 7.64052C6.94168 8.27631 7.21067 8.8204 7.74864 9.27279C8.43334 9.84744 10.0962 10.4466 12.7371 11.0701C15.3781 11.6937 17.3283 12.3417 18.5876 13.0142C19.8592 13.6744 20.8496 14.5853 21.5587 15.7468C22.2801 16.8961 22.6408 18.3206 22.6408 20.0201C22.6408 21.5606 22.2128 23.0034 21.357 24.3483C20.5011 25.6933 19.2907 26.6958 17.7256 27.3561C16.1606 28.0041 14.2105 28.3281 11.8752 28.3281C8.47613 28.3281 5.86573 27.5456 4.04395 25.9806C2.22217 24.4033 1.134 22.1108 0.779421 19.1031Z" fill="#177263"/>
</svg>
