<svg width="13" height="15" viewBox="0 0 13 15" fill="none" xmlns="http://www.w3.org/2000/svg">
<path d="M6.49982 5.34058e-05C3.37704 5.34058e-05 0.84552 2.53157 0.84552 5.65435C0.84552 6.69869 1.04993 7.77732 1.63653 8.55474L6.49982 15.0001L11.3631 8.55474C11.8959 7.84862 12.1541 6.60029 12.1541 5.65435C12.1541 2.53157 9.62259 5.34058e-05 6.49982 5.34058e-05ZM6.49982 3.27489C7.81377 3.27489 8.87927 4.3404 8.87927 5.65434C8.87927 6.9683 7.81377 8.0338 6.49982 8.0338C5.18587 8.0338 4.12037 6.9683 4.12037 5.65435C4.12037 4.3404 5.18587 3.27489 6.49982 3.27489Z" fill="#177263"/>
</svg>
