<svg width="13" height="17" viewBox="0 0 13 17" fill="none" xmlns="http://www.w3.org/2000/svg">
<path d="M6.10352e-05 10.7361L3.04934 10.4396C3.23286 11.4631 3.60344 12.2148 4.16106 12.6948C4.72574 13.1748 5.48453 13.4148 6.43743 13.4148C7.4468 13.4148 8.20559 13.203 8.71381 12.7795C9.22908 12.3489 9.48671 11.8478 9.48671 11.276C9.48671 10.909 9.37731 10.5984 9.15849 10.3443C8.94674 10.0832 8.57264 9.85728 8.03619 9.6667C7.66915 9.53965 6.83271 9.31377 5.52688 8.98908C3.84696 8.57263 2.66818 8.06089 1.99056 7.45385C1.03766 6.59977 0.561213 5.55864 0.561213 4.33046C0.561213 3.5399 0.783557 2.80229 1.22824 2.11761C1.67999 1.42587 2.32584 0.900015 3.16581 0.54003C4.01283 0.180046 5.03279 5.34058e-05 6.22568 5.34058e-05C8.17383 5.34058e-05 9.63847 0.427094 10.6196 1.28118C11.6078 2.13526 12.1266 3.27521 12.176 4.70103L9.04203 4.83867C8.90792 4.04106 8.61852 3.46932 8.17383 3.12345C7.7362 2.77052 7.07623 2.59406 6.19391 2.59406C5.28336 2.59406 4.57045 2.78111 4.05518 3.15521C3.72343 3.3952 3.55756 3.71637 3.55756 4.1187C3.55756 4.48574 3.71284 4.79985 4.02342 5.06101C4.4187 5.39276 5.37865 5.73863 6.9033 6.09862C8.42794 6.4586 9.55377 6.8327 10.2808 7.22092C11.0149 7.60208 11.5866 8.12794 11.996 8.7985C12.4125 9.462 12.6207 10.2843 12.6207 11.2655C12.6207 12.1548 12.3736 12.9877 11.8796 13.7642C11.3855 14.5406 10.6867 15.1194 9.78317 15.5006C8.87968 15.8747 7.75385 16.0617 6.40567 16.0617C4.4434 16.0617 2.93641 15.61 1.88469 14.7065C0.832967 13.7959 0.204758 12.4725 6.10352e-05 10.7361Z" fill="#177263"/>
</svg>
